<?xml version="1.0" standalone="no"?>
<!DOCTYPE svg PUBLIC "-//W3C//DTD SVG 20010904//EN"
 "http://www.w3.org/TR/2001/REC-SVG-20010904/DTD/svg10.dtd">
<svg version="1.0" xmlns="http://www.w3.org/2000/svg"
 width="40.000000pt" height="40.000000pt" viewBox="0 0 40.000000 40.000000"
 preserveAspectRatio="xMidYMid meet">

<g transform="translate(0.000000,40.000000) scale(0.100000,-0.100000)"
fill="#000000" stroke="none">
<path d="M0 200 l0 -200 200 0 200 0 0 200 0 200 -200 0 -200 0 0 -200z m320
60 c0 -13 -26 -19 -41 -9 -12 8 -12 10 0 18 15 10 41 4 41 -9z m-102 -16 c34
-10 -7 -24 -74 -24 -66 0 -74 2 -74 19 0 17 6 18 68 14 37 -2 73 -6 80 -9z
m-100 -50 c6 -1 12 2 12 8 0 7 5 7 13 -1 8 -6 24 -8 38 -6 63 12 123 3 127
-19 3 -12 -2 -16 -15 -14 -10 2 -21 8 -25 13 -5 6 -8 5 -8 -2 0 -7 -9 -13 -20
-13 -11 0 -20 6 -20 13 0 8 -3 8 -8 1 -4 -5 -18 -10 -32 -10 -14 0 -28 5 -32
10 -5 7 -8 7 -8 -1 0 -8 -14 -13 -35 -13 -27 0 -35 4 -35 18 0 24 10 33 24 25
6 -4 17 -8 24 -9z m9 -70 c-3 -3 -12 -4 -19 -1 -8 3 -5 6 6 6 11 1 17 -2 13
-5z m46 -1 c-7 -2 -19 -2 -25 0 -7 3 -2 5 12 5 14 0 19 -2 13 -5z m65 0 c-10
-2 -26 -2 -35 0 -10 3 -2 5 17 5 19 0 27 -2 18 -5z m55 0 c-7 -2 -19 -2 -25 0
-7 3 -2 5 12 5 14 0 19 -2 13 -5z m44 1 c-3 -3 -12 -4 -19 -1 -8 3 -5 6 6 6
11 1 17 -2 13 -5z m-184 -21 c-7 -2 -19 -2 -25 0 -7 3 -2 5 12 5 14 0 19 -2
13 -5z"/>
</g>
</svg>
